<?xml version="1.0" encoding="UTF-8" standalone="no"?>
<svg
   xmlns:dc="http://purl.org/dc/elements/1.1/"
   xmlns:cc="http://creativecommons.org/ns#"
   xmlns:rdf="http://www.w3.org/1999/02/22-rdf-syntax-ns#"
   xmlns:svg="http://www.w3.org/2000/svg"
   xmlns="http://www.w3.org/2000/svg"
   xmlns:sodipodi="http://sodipodi.sourceforge.net/DTD/sodipodi-0.dtd"
   xmlns:inkscape="http://www.inkscape.org/namespaces/inkscape"
   width="1792"
   height="1792"
   viewBox="0 0 1792 1792"
   id="svg2"
   version="1.1"
   inkscape:version="0.48.4 r9939"
   sodipodi:docname="at.svg">
  <metadata
     id="metadata10">
    <rdf:RDF>
      <cc:Work
         rdf:about="">
        <dc:format>image/svg+xml</dc:format>
        <dc:type
           rdf:resource="http://purl.org/dc/dcmitype/StillImage" />
      </cc:Work>
    </rdf:RDF>
  </metadata>
  <defs
     id="defs8" />
  <sodipodi:namedview
     pagecolor="#ffffff"
     bordercolor="#666666"
     borderopacity="1"
     objecttolerance="10"
     gridtolerance="10"
     guidetolerance="10"
     inkscape:pageopacity="0"
     inkscape:pageshadow="2"
     inkscape:window-width="778"
     inkscape:window-height="480"
     id="namedview6"
     showgrid="false"
     inkscape:zoom="0.13169643"
     inkscape:cx="896"
     inkscape:cy="896"
     inkscape:window-x="0"
     inkscape:window-y="27"
     inkscape:window-maximized="0"
     inkscape:current-layer="svg2" />
  <path
     d="M1100 775q0-108-53.5-169t-147.5-61q-63 0-124 30.5t-110 84.5-79.5 137-30.5 180q0 112 53.5 173t150.5 61q96 0 176-66.5t122.5-166 42.5-203.5zm564 121q0 111-37 197t-98.5 135-131.5 74.5-145 27.5q-6 0-15.5.5t-16.5.5q-95 0-142-53-28-33-33-83-52 66-131.5 110t-173.5 44q-161 0-249.5-95.5t-88.5-269.5q0-157 66-290t179-210.5 246-77.5q87 0 155 35.5t106 99.5l2-19 11-56q1-6 5.5-12t9.5-6h118q5 0 13 11 5 5 3 16l-120 614q-5 24-5 48 0 39 12.5 52t44.5 13q28-1 57-5.5t73-24 77-50 57-89.5 24-137q0-292-174-466t-466-174q-130 0-248.5 51t-204 136.5-136.5 204-51 248.5 51 248.5 136.5 204 204 136.5 248.5 51q228 0 405-144 11-9 24-8t21 12l41 49q8 12 7 24-2 13-12 22-102 83-227.5 128t-258.5 45q-156 0-298-61t-245-164-164-245-61-298 61-298 164-245 245-164 298-61q344 0 556 212t212 556z"
     fill="true"
     id="path4"
     style="fill:#4b4b60;fill-opacity:0.86666667" />
</svg>
